<svg width="24" height="20" viewBox="0 0 24 20" fill="none" xmlns="http://www.w3.org/2000/svg">
<path d="M-1.66297e-05 19.6364L11.5568 -1.23978e-05L23.1136 19.6364H-1.66297e-05ZM11.5568 17.4375C11.9943 17.4375 12.3665 17.2841 12.6733 16.9773C12.9858 16.6648 13.142 16.2898 13.142 15.8523C13.142 15.4148 12.9858 15.0426 12.6733 14.7358C12.3665 14.4233 11.9943 14.267 11.5568 14.267C11.1193 14.267 10.7443 14.4233 10.4318 14.7358C10.125 15.0426 9.97157 15.4148 9.97157 15.8523C9.97157 16.2898 10.125 16.6648 10.4318 16.9773C10.7443 17.2841 11.1193 17.4375 11.5568 17.4375ZM10.517 12.3409H12.5966L12.75 6.54544H10.3636L10.517 12.3409Z" fill="#757575"/>
</svg>
